<svg xmlns="http://www.w3.org/2000/svg" viewBox="0 0 512 512">
  <defs>
    <linearGradient id="grad" x1="0%" y1="0%" x2="100%" y2="100%">
      <stop offset="0%" style="stop-color:#005bbf;stop-opacity:1" />
      <stop offset="100%" style="stop-color:#1a73e8;stop-opacity:1" />
    </linearGradient>
  </defs>
  <circle cx="256" cy="256" r="240" fill="url(#grad)" />
  <path d="M256 120c-70.7 0-134.7 28.7-181 75l33.9 33.9c38.5-38.5 91.7-62.3 147.1-62.3s108.6 23.8 147.1 62.3l33.9-33.9c-46.3-46.3-110.3-75-181-75z" fill="#ffffff" />
  <path d="M256 200c-48.6 0-92.5 19.7-124.4 51.6l33.9 33.9c23.1-23.1 55.1-37.4 90.5-37.4s67.4 14.3 90.5 37.4l33.9-33.9C348.5 219.7 304.6 200 256 200z" fill="#ffffff" opacity="0.8" />
  <path d="M256 280c-26.5 0-50.5 10.7-67.9 28.1l33.9 33.9c8.7-8.7 20.7-14 34-14s25.3 5.3 34 14l33.9-33.9c-17.4-17.4-41.4-28.1-67.9-28.1z" fill="#ffffff" opacity="0.6" />
  <circle cx="256" cy="380" r="24" fill="#ffffff" />
</svg>
